<svg width="2261" height="699" viewBox="0 0 2261 699" fill="none" xmlns="http://www.w3.org/2000/svg">
<path d="M542.226 160.02C547.209 160.02 551.229 159.965 555.245 160.031C569.415 160.249 581.474 172.767 582.799 186.946C584.117 200.98 575.213 213.724 561.55 217.906C547.477 222.216 532.884 215.804 526.583 202.266C523.207 195.016 522.853 187.344 525.435 179.78C526.887 175.521 526.608 171.969 523.841 168.377C506.669 146.081 487.451 125.978 463.862 110.676C404.336 146.846 350.676 231.627 350.411 324.579C350.151 415.531 402.322 498.126 450.232 529.184C450.699 527.326 451.441 525.763 451.434 524.2C451.365 512.437 450.72 500.658 451.05 488.909C452.73 429.091 472.068 375.485 508.096 328.018C536.193 290.996 571.341 262.626 613.536 243.365C666.273 219.291 721.291 212.656 778.304 222.504C792.579 224.97 793.571 226.041 796.074 240.221C800.904 267.621 800.778 295.171 798.286 322.776C797.964 326.349 797.537 329.913 797.124 333.789C800.459 336.98 803.935 339.851 806.88 343.199C819.141 357.116 815.321 384.914 792.003 391.056C778.348 394.652 763.967 388.112 758.025 375.576C751.652 362.129 755.421 346.544 767.23 338.121C770.149 336.04 773.365 334.386 776.74 332.361C779.593 326.251 779.615 319.355 780.191 312.698C781.998 291.881 781.335 271.09 778.373 250.393C777.247 242.52 776.461 241.474 768.375 240.174C745.119 236.436 721.671 236.261 698.415 239.128C661.388 243.693 626.624 255.395 594.717 275.272C548.241 304.221 513.778 343.563 491.536 393.923C473.386 435.019 467.414 477.986 470.424 522.51C470.554 524.422 471.785 526.258 472.991 529.392C476.678 525.479 479.473 522.67 482.091 519.708C505.058 493.718 531.775 472.474 562.574 456.743C620.739 427.029 681.996 418.202 746.046 431.022C807.242 443.274 858.443 473.359 899.907 520.142C907.374 528.568 914.117 537.684 920.708 546.835C927.729 556.592 927.66 559.116 921.117 568.738C907.331 589.005 891.473 607.44 872.671 623.197C868.873 626.381 865.125 629.685 861.022 632.439C856.024 635.795 854.297 639.445 855.058 645.974C856.713 660.175 848.771 671.749 835.745 676.737C819.939 682.781 802.089 673.458 797.414 656.71C792.855 640.381 802.47 623.688 818.671 620.082C824.433 618.799 830.324 618.377 835.894 620.945C839.617 622.665 842.876 622.151 845.968 619.739C868.123 602.47 888.239 583.227 903.539 559.342C903.771 558.985 903.767 558.472 904.003 557.499C900.175 550.194 894.529 543.768 888.949 537.312C832.396 471.866 760.8 440.877 674.969 445.27C618.51 448.163 568.239 468.703 524.682 505.419C505.565 521.53 489.099 539.924 475.135 560.665C459.43 583.996 441.708 605.564 420.259 623.856C380.562 657.705 335.322 679.728 283.708 687.379C185.286 701.977 101.736 672.343 33.105 600.233C23.5231 590.164 15.9728 578.152 7.31065 567.172C2.65369 561.27 3.16436 555.765 7.25275 549.834C17.53 534.922 28.4843 520.55 41.5969 508.057C52.0298 498.119 63.0023 488.752 74.2789 478.646C74.2789 475.381 74.2463 471.392 74.2825 467.403C74.4129 453.766 85.3998 441.216 97.169 438.982C109.405 436.662 119.461 440.09 127.167 449.73C134.765 459.231 135.63 472.623 129.376 482.872C122.931 493.437 113.349 498.53 100.964 497.288C96.5642 496.851 92.2622 495.39 87.3009 494.257C63.2738 511.846 42.5783 532.871 25.504 557.339C59.0586 614.114 137.025 671.003 236.19 672.409C322.535 673.633 402.356 628.184 439.637 573.86C437.743 570.8 434.886 572.203 432.398 572.407C405.807 574.578 379.415 573.645 353.179 568.315C317.941 561.16 285.219 548.056 255.093 528.215C219.88 505.022 191.109 475.545 169.324 439.379C138.557 388.309 125.332 332.816 129.526 273.224C130.257 262.859 131.514 252.516 132.89 242.217C134.487 230.238 137.083 227.601 148.867 225.801C178.811 221.229 208.813 219.655 238.903 224.511C240.206 224.722 241.572 224.537 243.371 224.537C245.942 221.669 248.434 218.467 251.345 215.724C260.478 207.111 274.25 205.209 285.23 210.813C296.792 216.722 302.652 229.01 300.468 242.771C298.567 254.742 289.651 264.309 277.578 266.473C265.559 268.627 255.296 265.136 247.836 255.034C245.707 252.148 244.139 248.837 242.314 245.722C223.505 239.481 188.857 239.157 154.179 244.906C150.794 247.288 150.812 251.128 150.348 254.629C144.293 300.355 148.414 345.013 165.347 388.054C181.886 430.1 207.361 465.861 242.176 494.588C280.272 526.025 323.695 545.319 372.651 552.143C392.405 554.897 412.079 555.014 431.855 553.411C434.071 553.232 436.266 552.682 438.449 552.209C438.797 552.132 439.043 551.557 439.369 551.174C440.908 547.706 438.033 546.463 436.07 544.802C414.259 526.397 394.476 506.162 378.68 482.132C352.086 441.671 336.565 397.475 332.571 349.046C329.362 310.13 333.708 272.182 346.052 235.277C362.497 186.119 390.344 144.536 429.87 111.095C437.432 104.701 445.655 99.1052 453.362 92.8791C460.093 87.4434 466.641 87.9499 473.05 92.9665C483.69 101.291 494.778 109.182 504.534 118.472C515.608 129.02 525.443 140.882 535.767 152.219C537.886 154.54 539.79 157.061 542.228 160.019L542.226 160.02ZM836.009 649.308C836.252 643.869 831.83 638.936 826.203 638.367C821.137 637.857 815.73 642.816 815.433 648.244C815.14 653.607 819.605 658.587 825.261 659.203C830.32 659.753 835.766 654.736 836.009 649.308ZM553.188 199.712C558.935 199.413 563.592 194.663 563.371 189.322C563.129 183.42 557.331 178.491 551.486 179.219C546.778 179.806 542.77 184.648 542.871 189.624C542.987 195.311 547.774 199.993 553.188 199.712ZM785.289 372.479C790.544 372.104 795.038 366.686 794.477 361.4C793.912 356.084 788.657 351.727 783.367 352.19C777.786 352.678 773.691 357.622 774.281 363.163C774.864 368.646 779.85 372.865 785.289 372.479ZM103.85 478.266C109.1 478.252 114.163 473.202 114.174 467.967C114.185 462.513 109.452 457.912 103.81 457.893C98.4177 457.875 93.1885 462.87 93.2464 467.974C93.3045 472.856 98.892 478.284 103.85 478.266ZM271.557 247.605C276.92 247.631 281.907 242.84 281.99 237.579C282.073 232.512 276.899 227.236 271.818 227.207C266.082 227.178 261.798 231.488 261.762 237.324C261.725 243.347 265.76 247.58 271.557 247.605Z" stroke="#B1B0A4" stroke-width="7.22" stroke-miterlimit="10"/>
<path d="M1011.6 303H1046.1V79.8H1011.6V303ZM1076.48 224.4C1076.48 271.2 1109.78 307.5 1156.28 307.5C1204.58 307.5 1237.28 270.9 1237.28 224.4C1237.28 177.3 1204.28 141.6 1157.48 141.6C1109.18 141.6 1076.48 177.9 1076.48 224.4ZM1156.88 172.8C1185.98 172.8 1201.88 197.7 1201.88 224.4C1201.88 251.1 1185.38 276.3 1156.88 276.3C1128.38 276.3 1111.88 250.5 1111.88 224.4C1111.88 197.4 1128.38 172.8 1156.88 172.8ZM1250.05 146.1V174H1277.65V254.7C1277.65 287.1 1295.35 307.5 1328.35 307.5C1335.25 307.5 1341.85 306.6 1348.15 304.8C1354.15 302.7 1359.55 300.3 1364.05 297L1356.25 270.9C1352.65 273 1348.75 274.5 1344.55 275.4C1340.35 276.6 1336.45 277.2 1332.85 277.2C1317.55 277.2 1312.15 264.6 1312.15 251.1V174H1357.75V146.1H1312.15V93H1277.65V146.1H1250.05ZM1391.29 233.7C1391.29 276.9 1416.79 307.5 1460.29 307.5C1505.29 307.5 1529.89 275.7 1529.89 233.7V146.1H1495.39V234.3C1495.39 256.2 1485.19 276.3 1460.59 276.3C1435.99 276.3 1425.79 256.2 1425.79 234.3V146.1H1391.29V233.7ZM1557.17 265.5C1565.87 293.4 1592.87 307.5 1620.77 307.5C1652.27 307.5 1682.27 289.5 1682.27 255.9C1682.27 227.1 1657.97 213 1632.47 208.8L1622.57 207C1612.67 205.2 1595.57 201.3 1595.57 188.4C1595.57 175.5 1608.77 169.8 1619.87 169.8C1633.97 169.8 1643.87 177.3 1648.97 190.5L1679.87 183C1672.07 155.7 1647.47 141.6 1620.17 141.6C1589.87 141.6 1561.67 158.7 1561.67 191.1C1561.67 220.5 1586.87 232.8 1612.37 237.3L1622.27 239.1C1633.37 240.9 1647.77 245.7 1647.77 259.2C1647.77 273.3 1633.07 279 1621.07 279C1606.07 279 1593.77 271.5 1588.37 257.4L1557.17 265.5ZM1011.6 537.1V694H1046.1V614.5C1046.1 589.9 1057.5 569.2 1084.5 569.2C1089.3 569.2 1094.1 569.5 1098.6 571.3L1102.5 537.7C1097.4 535.6 1091.7 535 1086.3 535C1067.1 535 1052.4 545.5 1044.6 562.9L1043.1 537.1H1011.6ZM1116.32 615.4C1116.32 662.8 1149.02 698.5 1196.12 698.5C1224.92 698.5 1252.82 685.3 1264.82 658.3L1234.52 646.6C1225.22 661.3 1212.62 668.5 1196.12 668.5C1169.72 668.5 1154.42 648.1 1152.02 623.8H1268.12V613.6C1268.12 567.7 1239.92 532.6 1193.42 532.6C1146.92 532.6 1116.32 571.6 1116.32 615.4ZM1193.42 560.5C1216.52 560.5 1228.82 578.5 1232.12 599.2H1152.92C1157.12 578.2 1170.92 560.5 1193.42 560.5ZM1279.04 537.1L1339.04 694H1374.14L1434.14 537.1H1397.54L1357.04 658L1316.84 537.1H1279.04ZM1445.33 615.4C1445.33 662.8 1478.03 698.5 1525.13 698.5C1553.93 698.5 1581.83 685.3 1593.83 658.3L1563.53 646.6C1554.23 661.3 1541.63 668.5 1525.13 668.5C1498.73 668.5 1483.43 648.1 1481.03 623.8H1597.13V613.6C1597.13 567.7 1568.93 532.6 1522.43 532.6C1475.93 532.6 1445.33 571.6 1445.33 615.4ZM1522.43 560.5C1545.53 560.5 1557.83 578.5 1561.13 599.2H1481.93C1486.13 578.2 1499.93 560.5 1522.43 560.5ZM1626.54 537.1V694H1661.04V602.8C1661.04 580.6 1676.34 563.8 1698.54 563.8C1722.54 563.8 1730.94 583.3 1730.94 604.6V694H1765.44V600.7C1765.44 563.8 1746.24 532.6 1707.24 532.6C1687.74 532.6 1668.84 541.3 1659.24 558.7L1658.04 537.1H1626.54ZM1802.62 624.7C1802.62 667.9 1828.12 698.5 1871.62 698.5C1916.62 698.5 1941.22 666.7 1941.22 624.7V537.1H1906.72V625.3C1906.72 647.2 1896.52 667.3 1871.92 667.3C1847.32 667.3 1837.12 647.2 1837.12 625.3V537.1H1802.62V624.7ZM1971.5 615.4C1971.5 662.8 2004.2 698.5 2051.3 698.5C2080.1 698.5 2108 685.3 2120 658.3L2089.7 646.6C2080.4 661.3 2067.8 668.5 2051.3 668.5C2024.9 668.5 2009.6 648.1 2007.2 623.8H2123.3V613.6C2123.3 567.7 2095.1 532.6 2048.6 532.6C2002.1 532.6 1971.5 571.6 1971.5 615.4ZM2048.6 560.5C2071.7 560.5 2084 578.5 2087.3 599.2H2008.1C2012.3 578.2 2026.1 560.5 2048.6 560.5Z" fill="#AFAFA5"/>
</svg>
